<svg width="145" height="32" viewBox="0 0 145 32" fill="none" xmlns="http://www.w3.org/2000/svg">
<path d="M10.2248 25.585C8.6797 25.585 7.33912 25.3141 6.20303 24.7723C5.06695 24.2079 4.12399 23.4066 3.37418 22.3681C2.64708 21.3297 2.10176 20.0543 1.73821 18.5418C1.39739 17.0294 1.22697 15.3024 1.22697 13.3611C1.22697 11.4423 1.39739 9.72661 1.73821 8.21414C2.10176 6.6791 2.64708 5.39238 3.37418 4.35396C4.12399 3.31555 5.06695 2.52546 6.20303 1.98368C7.33912 1.41932 8.6797 1.13715 10.2248 1.13715C13.3149 1.13715 15.5871 2.20942 17.0413 4.35396C18.4955 6.49851 19.2226 9.50087 19.2226 13.3611C19.2226 17.2212 18.4955 20.2236 17.0413 22.3681C15.5871 24.5127 13.3149 25.585 10.2248 25.585ZM10.2248 21.9618C11.02 21.9618 11.6903 21.8151 12.2357 21.5216C12.781 21.2056 13.2127 20.7654 13.5308 20.201C13.8716 19.6367 14.1102 18.9482 14.2465 18.1355C14.4056 17.3002 14.4851 16.3747 14.4851 15.3589V11.3294C14.4851 9.2977 14.167 7.69494 13.5308 6.52108C12.9173 5.34723 11.8153 4.7603 10.2248 4.7603C8.63426 4.7603 7.52089 5.34723 6.88469 6.52108C6.2712 7.69494 5.96446 9.2977 5.96446 11.3294V15.3927C5.96446 17.4244 6.2712 19.0272 6.88469 20.201C7.52089 21.3749 8.63426 21.9618 10.2248 21.9618Z" fill="white"/>
<path d="M34.6584 22.0973H34.4198C33.9427 23.1582 33.2838 24.0048 32.4431 24.6368C31.6251 25.2689 30.5344 25.585 29.1711 25.585C28.1714 25.585 27.2511 25.4044 26.4104 25.0432C25.5925 24.6594 24.8881 24.0951 24.2973 23.3501C23.7066 22.5826 23.2521 21.6232 22.934 20.4719C22.6159 19.3206 22.4569 17.9775 22.4569 16.4424C22.4569 13.3723 23.0703 11.0811 24.2973 9.56859C25.5243 8.05613 27.1489 7.29989 29.1711 7.29989C30.5344 7.29989 31.6251 7.61593 32.4431 8.24801C33.2838 8.88008 33.9427 9.72661 34.4198 10.7876H34.6584V0.121311H39.021V25.1786H34.6584V22.0973ZM31.0116 22.1311C31.5115 22.1311 31.9773 22.0747 32.409 21.9618C32.8634 21.8264 33.2497 21.6458 33.5678 21.42C33.9086 21.1717 34.1699 20.867 34.3517 20.5058C34.5562 20.122 34.6584 19.6818 34.6584 19.1852V13.6997C34.6584 13.203 34.5562 12.7741 34.3517 12.4129C34.1699 12.0292 33.9086 11.7244 33.5678 11.4987C33.2497 11.2504 32.8634 11.0698 32.409 10.9569C31.9773 10.8215 31.5115 10.7537 31.0116 10.7537C29.7392 10.7537 28.7508 11.1375 28.0464 11.905C27.3647 12.6725 27.0239 13.7222 27.0239 15.0541V17.8307C27.0239 19.1626 27.3647 20.2123 28.0464 20.9798C28.7508 21.7474 29.7392 22.1311 31.0116 22.1311Z" fill="white"/>
<path d="M56.8767 7.70623H61.3074L52.889 28.2939C52.4119 29.4903 51.7757 30.3933 50.9804 31.0028C50.1852 31.6348 49.0604 31.9509 47.6062 31.9509H44.4025V28.5309H48.5946L49.9239 25.0093L42.8347 7.70623H47.4699L50.1624 15.0203L52.037 20.5735H52.2756L54.1501 15.0203L56.8767 7.70623Z" fill="white"/>
<path d="M72.926 25.585C70.9947 25.585 69.3246 25.2915 67.9159 24.7046C66.5071 24.0951 65.4051 23.2824 64.6099 22.2666L67.1661 19.964C67.8932 20.7541 68.7225 21.3636 69.6541 21.7925C70.6084 22.2214 71.7104 22.4359 72.9601 22.4359C74.0508 22.4359 74.9255 22.2553 75.5845 21.8941C76.2434 21.5329 76.5729 20.9798 76.5729 20.2349C76.5729 19.6028 76.3457 19.1739 75.8912 18.9482C75.4595 18.7224 74.8801 18.5531 74.153 18.4402L71.3242 18C70.5971 17.8872 69.8813 17.7292 69.1769 17.526C68.4953 17.3002 67.8818 16.9955 67.3365 16.6117C66.8139 16.228 66.3935 15.7426 66.0754 15.1557C65.7573 14.5462 65.5983 13.8125 65.5983 12.9547C65.5983 11.1262 66.2799 9.72661 67.6432 8.75593C69.0293 7.78524 70.9265 7.29989 73.335 7.29989C75.0392 7.29989 76.482 7.53692 77.6635 8.01098C78.8678 8.48503 79.8562 9.15097 80.6287 10.0088L78.3452 12.5145C77.8453 11.9727 77.175 11.4987 76.3343 11.0924C75.5163 10.6634 74.4711 10.449 73.1987 10.449C70.972 10.449 69.8586 11.1375 69.8586 12.5145C69.8586 13.1466 70.0858 13.5868 70.5403 13.8351C70.9947 14.0609 71.5855 14.2302 72.3126 14.343L75.1073 14.7832C75.8571 14.8961 76.5729 15.0654 77.2545 15.2911C77.9589 15.4943 78.5724 15.7878 79.095 16.1715C79.6403 16.5553 80.072 17.0406 80.3901 17.6276C80.7082 18.2145 80.8673 18.9369 80.8673 19.7947C80.8673 21.6006 80.1629 23.0228 78.7542 24.0612C77.3681 25.077 75.4254 25.585 72.926 25.585Z" fill="white"/>
<path d="M93.8492 25.585C91.9178 25.585 90.2478 25.2915 88.839 24.7046C87.4303 24.0951 86.3283 23.2824 85.533 22.2666L88.0892 19.964C88.8163 20.7541 89.6457 21.3636 90.5772 21.7925C91.5316 22.2214 92.6336 22.4359 93.8833 22.4359C94.9739 22.4359 95.8487 22.2553 96.5076 21.8941C97.1665 21.5329 97.496 20.9798 97.496 20.2349C97.496 19.6028 97.2688 19.1739 96.8144 18.9482C96.3826 18.7224 95.8032 18.5531 95.0761 18.4402L92.2473 18C91.5202 17.8872 90.8045 17.7292 90.1001 17.526C89.4184 17.3002 88.8049 16.9955 88.2596 16.6117C87.737 16.228 87.3167 15.7426 86.9986 15.1557C86.6805 14.5462 86.5214 13.8125 86.5214 12.9547C86.5214 11.1262 87.2031 9.72661 88.5664 8.75593C89.9524 7.78524 91.8497 7.29989 94.2582 7.29989C95.9623 7.29989 97.4051 7.53692 98.5867 8.01098C99.7909 8.48503 100.779 9.15097 101.552 10.0088L99.2683 12.5145C98.7684 11.9727 98.0981 11.4987 97.2574 11.0924C96.4394 10.6634 95.3942 10.449 94.1218 10.449C91.8951 10.449 90.7817 11.1375 90.7817 12.5145C90.7817 13.1466 91.009 13.5868 91.4634 13.8351C91.9178 14.0609 92.5086 14.2302 93.2357 14.343L96.0305 14.7832C96.7803 14.8961 97.496 15.0654 98.1777 15.2911C98.882 15.4943 99.4955 15.7878 100.018 16.1715C100.563 16.5553 100.995 17.0406 101.313 17.6276C101.631 18.2145 101.79 18.9369 101.79 19.7947C101.79 21.6006 101.086 23.0228 99.6773 24.0612C98.2913 25.077 96.3486 25.585 93.8492 25.585Z" fill="white"/>
<path d="M115.249 25.585C113.841 25.585 112.591 25.3705 111.5 24.9416C110.41 24.5127 109.49 23.9032 108.74 23.1131C108.013 22.323 107.456 21.3749 107.07 20.2687C106.683 19.14 106.49 17.8759 106.49 16.4763C106.49 15.0541 106.683 13.7787 107.07 12.65C107.479 11.5213 108.047 10.5619 108.774 9.77176C109.501 8.98167 110.376 8.37217 111.398 7.94326C112.443 7.51435 113.614 7.29989 114.909 7.29989C116.181 7.29989 117.329 7.51435 118.351 7.94326C119.373 8.34959 120.237 8.93652 120.941 9.70404C121.668 10.4716 122.225 11.3971 122.611 12.4807C122.998 13.5642 123.191 14.7607 123.191 16.07V17.4921H110.853V17.9323C110.853 19.1965 111.25 20.2236 112.046 21.0137C112.841 21.7812 113.954 22.165 115.386 22.165C116.476 22.165 117.408 21.9505 118.181 21.5216C118.976 21.0701 119.635 20.4832 120.157 19.7608L122.645 22.2327C122.009 23.1582 121.078 23.9483 119.851 24.603C118.646 25.2576 117.113 25.585 115.249 25.585ZM114.943 10.4828C113.716 10.4828 112.727 10.8666 111.978 11.6341C111.228 12.4017 110.853 13.4175 110.853 14.6816V14.9187H118.828V14.6139C118.828 13.3498 118.476 12.3452 117.772 11.6003C117.09 10.8553 116.147 10.4828 114.943 10.4828Z" fill="white"/>
<path d="M140.569 7.70623H145L136.582 28.2939C136.104 29.4903 135.468 30.3933 134.673 31.0028C133.878 31.6348 132.753 31.9509 131.299 31.9509H128.095V28.5309H132.287L133.616 25.0093L126.527 7.70623H131.162L133.855 15.0203L135.73 20.5735H135.968L137.843 15.0203L140.569 7.70623Z" fill="white"/>
<path d="M0.000119422 28.5893H38.9518V32H0L0.000119422 28.5893Z" fill="#7C60ED"/>
<path d="M41.3859 0H62.079V3.41069H41.3859V0Z" fill="#F15F79"/>
</svg>
