<svg width="79" height="48" viewBox="0 0 79 48" fill="none" xmlns="http://www.w3.org/2000/svg">
<path fill-rule="evenodd" clip-rule="evenodd" d="M0.409872 47.3962C0.409872 47.3962 0.409788 47.3963 0.540626 47.4697C0.612013 47.6016 0.612106 47.6016 0.612106 47.6016L0.619451 47.5976L0.641937 47.5855L0.73049 47.5382C0.808377 47.4967 0.923268 47.436 1.07101 47.3588C1.36651 47.2044 1.79339 46.9845 2.31843 46.7225C3.36867 46.1985 4.81096 45.5067 6.37981 44.8349C7.94922 44.1628 9.64234 43.5121 11.1948 43.0693C12.753 42.6248 14.1485 42.3961 15.1323 42.5499L15.1786 42.2535C14.126 42.089 12.6765 42.3347 11.1126 42.7808C9.54297 43.2285 7.83693 43.8846 6.26172 44.5591C4.68596 45.2339 3.23817 45.9284 2.1845 46.4541C1.65758 46.717 1.22904 46.9378 0.932109 47.0929C0.925306 47.0964 0.918573 47.0999 0.91191 47.1034C0.956978 47.0199 1.0077 46.9253 1.06347 46.8204C1.30772 46.3614 1.649 45.7059 2.0374 44.9196C2.8139 43.3475 3.78007 41.2499 4.53561 39.1525C5.28928 37.0603 5.8408 34.9487 5.77228 33.356C5.73797 32.5586 5.54754 31.871 5.12851 31.3832C4.70482 30.8901 4.06754 30.6243 3.19234 30.6328L3.19525 30.9328C4.0049 30.9249 4.54835 31.1683 4.90096 31.5787C5.25824 31.9946 5.43969 32.6049 5.47256 33.3689C5.53838 34.8989 5.0054 36.9631 4.25336 39.0508C3.50318 41.1333 2.54242 43.2197 1.76842 44.7867C1.38157 45.5699 1.04171 46.2227 0.798628 46.6795C0.677093 46.9079 0.579769 47.0873 0.512883 47.2096C0.47944 47.2707 0.453609 47.3175 0.436167 47.3489L0.416392 47.3845L0.409872 47.3962ZM0.540626 47.4697L0.612106 47.6016L0.156494 47.8481L0.409872 47.3962L0.540626 47.4697Z" fill="white"/>
<path fill-rule="evenodd" clip-rule="evenodd" d="M38.8032 11.1122C25.9197 18.0561 14.4218 27.8131 7.47091 39.0643L7.72613 39.2219C14.6425 28.0267 26.0952 18.3023 38.9456 11.3763C51.7959 4.45035 66.0301 0.330274 78.4999 0.330273V0.0302734C65.9696 0.0302729 51.6867 4.16841 38.8032 11.1122Z" fill="white"/>
</svg>
